<?xml version="1.0" standalone="no"?><!DOCTYPE svg PUBLIC "-//W3C//DTD SVG 1.1//EN" "http://www.w3.org/Graphics/SVG/1.1/DTD/svg11.dtd"><svg t="1617162344799" class="icon" viewBox="0 0 1024 1024" version="1.1" xmlns="http://www.w3.org/2000/svg" p-id="1497" xmlns:xlink="http://www.w3.org/1999/xlink" width="200" height="200"><defs><style type="text/css"></style></defs><path d="M628.8 928c-144 0-260.8-116.8-260.8-260.8s116.8-260.8 260.8-260.8 260.8 116.8 260.8 260.8c1.6 144-116.8 260.8-260.8 260.8z" fill="#96E8BA" p-id="1498"></path><path d="M256 185.6c-6.4 0-14.4-3.2-17.6-9.6-6.4-9.6-4.8-24 4.8-32 14.4-9.6 44.8-24 60.8-32 11.2-4.8 24-1.6 30.4 9.6s1.6 24-9.6 30.4c-25.6 12.8-46.4 24-54.4 30.4-4.8 1.6-9.6 3.2-14.4 3.2z" fill="#103E26" p-id="1499"></path><path d="M478.4 883.2c-224 0-406.4-182.4-406.4-406.4 0-100.8 36.8-196.8 104-272 8-9.6 22.4-9.6 32-1.6 9.6 8 9.6 22.4 1.6 32-60.8 67.2-92.8 152-92.8 241.6 0 200 161.6 361.6 361.6 361.6 200 0 361.6-161.6 361.6-361.6S678.4 115.2 478.4 115.2c-32 0-62.4 4.8-92.8 12.8-11.2 3.2-24-3.2-27.2-16-3.2-11.2 3.2-24 16-27.2 33.6-9.6 68.8-14.4 105.6-14.4 224 0 406.4 182.4 406.4 406.4-1.6 224-184 406.4-408 406.4z" fill="#103E26" p-id="1500"></path><path d="M478.4 462.4c-6.4 0-14.4-3.2-17.6-9.6l-80-112c-6.4-9.6-4.8-24 4.8-32 9.6-6.4 24-4.8 32 4.8l80 112c6.4 9.6 4.8 24-4.8 32-4.8 3.2-9.6 4.8-14.4 4.8z" fill="#103E26" p-id="1501"></path><path d="M478.4 462.4c-4.8 0-9.6-1.6-12.8-4.8-9.6-6.4-12.8-20.8-4.8-32l80-112c8-9.6 20.8-12.8 32-4.8 9.6 6.4 12.8 20.8 4.8 32l-80 112c-4.8 6.4-11.2 9.6-19.2 9.6z" fill="#103E26" p-id="1502"></path><path d="M630.4 494.4h-304c-12.8 0-22.4-9.6-22.4-22.4s9.6-22.4 22.4-22.4h304c12.8 0 22.4 9.6 22.4 22.4s-9.6 22.4-22.4 22.4zM574.4 606.4h-192c-12.8 0-22.4-9.6-22.4-22.4s9.6-22.4 22.4-22.4h192c12.8 0 22.4 9.6 22.4 22.4s-9.6 22.4-22.4 22.4z" fill="#103E26" p-id="1503"></path><path d="M478.4 782.4c-12.8 0-22.4-9.6-22.4-22.4v-272c0-12.8 9.6-22.4 22.4-22.4s22.4 9.6 22.4 22.4v272c0 12.8-9.6 22.4-22.4 22.4z" fill="#103E26" p-id="1504"></path></svg>